<?xml version="1.0" standalone="no"?>
<!DOCTYPE svg PUBLIC "-//W3C//DTD SVG 20010904//EN"
 "http://www.w3.org/TR/2001/REC-SVG-20010904/DTD/svg10.dtd">
<svg version="1.0" xmlns="http://www.w3.org/2000/svg"
 width="70.000000pt" height="70.000000pt" viewBox="0 0 232.000000 232.000000"
 preserveAspectRatio="xMidYMid meet">

<g transform="translate(0.000000,232.000000) scale(0.100000,-0.100000)"
fill="#000000" stroke="none">
<path d="M678 1934 c-169 -30 -357 -122 -483 -236 -6 -5 44 -62 129 -147 l139
-139 75 63 c187 157 386 233 633 242 145 6 234 -4 328 -38 30 -10 56 -17 59
-15 7 8 -147 124 -212 161 -195 109 -445 150 -668 109z" fill="#00ffe2"/>
<path d="M1704 1754 c17 -66 27 -197 21 -269 -22 -261 -118 -470 -300 -651
-74 -74 -79 -81 -49 -72 118 32 288 129 390 221 191 173 314 451 314 708 l0
89 -191 0 -191 0 6 -26z" fill="#00ffe2"/>
<path d="M649 1335 c-22 -111 -18 -321 9 -429 27 -107 94 -253 157 -342 117
-164 321 -313 503 -369 l22 -6 -2 201 -3 201 -59 24 c-112 46 -217 117 -316
215 -144 142 -226 288 -274 484 l-23 91 -14 -70z" fill="#00ffe2"/>

</g>
</svg>
